<svg width="60" height="61" viewBox="0 0 60 61" fill="none" xmlns="http://www.w3.org/2000/svg">
<rect y="0.679932" width="60" height="60" rx="30" fill="#388DD0"/>
<path d="M32.7003 24.9799C32.5171 25.1668 32.4145 25.4182 32.4145 25.6799C32.4145 25.9417 32.5171 26.193 32.7003 26.3799L34.3003 27.9799C34.4873 28.1631 34.7386 28.2658 35.0003 28.2658C35.2621 28.2658 35.5134 28.1631 35.7003 27.9799L39.4703 24.2099C39.9732 25.3211 40.1254 26.5591 39.9068 27.7591C39.6882 28.959 39.1091 30.0638 38.2466 30.9262C37.3842 31.7886 36.2794 32.3677 35.0795 32.5864C33.8796 32.805 32.6415 32.6527 31.5303 32.1499L24.6203 39.0599C24.2225 39.4577 23.683 39.6812 23.1203 39.6812C22.5577 39.6812 22.0182 39.4577 21.6203 39.0599C21.2225 38.6621 20.999 38.1225 20.999 37.5599C20.999 36.9973 21.2225 36.4577 21.6203 36.0599L28.5303 29.1499C28.0275 28.0387 27.8753 26.8007 28.0939 25.6008C28.3125 24.4009 28.8916 23.2961 29.7541 22.4336C30.6165 21.5712 31.7213 20.9921 32.9212 20.7735C34.1211 20.5548 35.3592 20.7071 36.4703 21.2099L32.7103 24.9699L32.7003 24.9799Z" stroke="white" stroke-width="2" stroke-linecap="round" stroke-linejoin="round"/>
</svg>
