<svg width="47" height="29" viewBox="0 0 47 29" fill="none" xmlns="http://www.w3.org/2000/svg">
<path d="M43.2861 6.41077C43.0584 5.67911 42.5947 5.00873 41.9419 4.46735C41.289 3.92597 40.47 3.53276 39.5678 3.32743C36.2711 2.67993 23.0844 2.67993 23.0844 2.67993C23.0844 2.67993 9.89776 2.67993 6.6011 3.3891C5.69882 3.59442 4.87989 3.98764 4.22701 4.52902C3.57413 5.0704 3.11044 5.74077 2.88276 6.47243C2.27942 9.1635 1.9843 11.8934 2.0011 14.6278C1.97959 17.3829 2.27473 20.1336 2.88276 22.8449C3.13377 23.5539 3.60785 24.1987 4.2592 24.7173C4.91056 25.2358 5.71717 25.6104 6.6011 25.8049C9.89776 26.5141 23.0844 26.5141 23.0844 26.5141C23.0844 26.5141 36.2711 26.5141 39.5678 25.8049C40.47 25.5996 41.289 25.2064 41.9419 24.665C42.5947 24.1236 43.0584 23.4533 43.2861 22.7216C43.8848 20.0508 44.1799 17.3417 44.1678 14.6278C44.1893 11.8728 43.8941 9.12209 43.2861 6.41077Z" stroke="#1E1E1E" stroke-width="4" stroke-linecap="round" stroke-linejoin="round"/>
<path d="M18.7719 19.6691L29.7928 14.6278L18.7719 9.5866V19.6691Z" stroke="#1E1E1E" stroke-width="4" stroke-linecap="round" stroke-linejoin="round"/>
</svg>
