<svg width="46" height="29" viewBox="0 0 46 29" fill="none" xmlns="http://www.w3.org/2000/svg">
<path d="M42.3886 5.99377C42.1658 5.26211 41.7122 4.59174 41.0736 4.05036C40.4349 3.50898 39.6337 3.11577 38.7511 2.91044C35.5261 2.26294 22.6261 2.26294 22.6261 2.26294C22.6261 2.26294 9.72607 2.26294 6.50107 2.97211C5.61841 3.17743 4.81728 3.57064 4.1786 4.11202C3.53991 4.6534 3.0863 5.32378 2.86357 6.05544C2.27335 8.7465 1.98464 11.4764 2.00107 14.2109C1.98003 16.9659 2.26876 19.7166 2.86357 22.4279C3.10912 23.1369 3.5729 23.7817 4.21009 24.3003C4.84729 24.8188 5.63636 25.1934 6.50107 25.3879C9.72607 26.0971 22.6261 26.0971 22.6261 26.0971C22.6261 26.0971 35.5261 26.0971 38.7511 25.3879C39.6337 25.1826 40.4349 24.7894 41.0736 24.248C41.7122 23.7066 42.1658 23.0363 42.3886 22.3046C42.9742 19.6338 43.2629 16.9247 43.2511 14.2109C43.2721 11.4558 42.9834 8.7051 42.3886 5.99377Z" stroke="#1E1E1E" stroke-width="4" stroke-linecap="round" stroke-linejoin="round"/>
<path d="M18.4073 19.2521L29.1886 14.2109L18.4073 9.16961V19.2521Z" stroke="#1E1E1E" stroke-width="4" stroke-linecap="round" stroke-linejoin="round"/>
</svg>
