<svg width="24" height="25" viewBox="0 0 24 25" fill="none" xmlns="http://www.w3.org/2000/svg">
<path d="M18 21.0801C19.6569 21.0801 21 19.7369 21 18.0801C21 16.4232 19.6569 15.0801 18 15.0801C16.3431 15.0801 15 16.4232 15 18.0801C15 19.7369 16.3431 21.0801 18 21.0801Z" stroke="#388DD0" stroke-width="2" stroke-linecap="round" stroke-linejoin="round"/>
<path d="M6 9.08008C7.65685 9.08008 9 7.73693 9 6.08008C9 4.42322 7.65685 3.08008 6 3.08008C4.34315 3.08008 3 4.42322 3 6.08008C3 7.73693 4.34315 9.08008 6 9.08008Z" stroke="#388DD0" stroke-width="2" stroke-linecap="round" stroke-linejoin="round"/>
<path d="M13 6.08008H16C16.5304 6.08008 17.0391 6.29079 17.4142 6.66586C17.7893 7.04094 18 7.54965 18 8.08008V15.0801" stroke="#388DD0" stroke-width="2" stroke-linecap="round" stroke-linejoin="round"/>
<path d="M6 9.08008V21.0801" stroke="#388DD0" stroke-width="2" stroke-linecap="round" stroke-linejoin="round"/>
</svg>
