<svg width="25" height="25" viewBox="0 0 25 25" fill="none" xmlns="http://www.w3.org/2000/svg">
<path d="M15.0793 6.97991C14.896 7.16684 14.7934 7.41816 14.7934 7.67991C14.7934 7.94166 14.896 8.19298 15.0793 8.37991L16.6792 9.97991C16.8662 10.1631 17.1175 10.2658 17.3792 10.2658C17.641 10.2658 17.8923 10.1631 18.0793 9.97991L21.8492 6.20991C22.3521 7.3211 22.5043 8.55915 22.2857 9.75906C22.0671 10.959 21.488 12.0638 20.6255 12.9262C19.7631 13.7886 18.6583 14.3677 17.4584 14.5864C16.2585 14.805 15.0204 14.6527 13.9093 14.1499L6.99925 21.0599C6.60143 21.4577 6.06186 21.6812 5.49925 21.6812C4.93664 21.6812 4.39707 21.4577 3.99925 21.0599C3.60143 20.6621 3.37793 20.1225 3.37793 19.5599C3.37793 18.9973 3.60143 18.4577 3.99925 18.0599L10.9092 11.1499C10.4064 10.0387 10.2542 8.80068 10.4728 7.60077C10.6914 6.40085 11.2705 5.29607 12.133 4.43363C12.9954 3.5712 14.1002 2.99208 15.3001 2.77345C16.5 2.55483 17.7381 2.70708 18.8492 3.20991L15.0893 6.96991L15.0793 6.97991Z" stroke="white" stroke-width="2" stroke-linecap="round" stroke-linejoin="round"/>
</svg>
