<svg width="20" height="21" viewBox="0 0 20 21" fill="none" xmlns="http://www.w3.org/2000/svg">
<path d="M16 13.6799C14.3431 13.6799 13 15.0231 13 16.6799C13 18.3368 14.3431 19.6799 16 19.6799C17.6569 19.6799 19 18.3368 19 16.6799C19 15.0231 17.6569 13.6799 16 13.6799ZM16 13.6799V6.67993C16 6.1495 15.7893 5.64079 15.4142 5.26572C15.0391 4.89065 14.5304 4.67993 14 4.67993H11M4 7.67993C5.65685 7.67993 7 6.33679 7 4.67993C7 3.02308 5.65685 1.67993 4 1.67993C2.34315 1.67993 1 3.02308 1 4.67993C1 6.33679 2.34315 7.67993 4 7.67993ZM4 7.67993V19.6799" stroke="#388DD0" stroke-width="2" stroke-linecap="round" stroke-linejoin="round"/>
</svg>
