<svg width="52" height="47" viewBox="0 0 52 47" fill="none" xmlns="http://www.w3.org/2000/svg">
<path d="M34.6741 0.355713C27.6693 0.355713 21.6519 3.78089 19.1226 8.63693C16.9011 8.24249 14.5912 8.45902 12.4727 9.29727C9.58923 10.4369 8.72961 12.5895 8.72961 13.5601C8.72961 14.53 8.72961 16.5566 8.72961 17.9501C8.5273 17.4436 7.86998 17.4436 7.86998 17.9083C7.86998 18.3731 7.86998 19.0897 7.86998 20.525C7.86998 21.9603 9.13423 22.0869 9.13423 22.0869C9.13423 22.0869 9.23577 23.6064 9.38847 24.2395C9.53962 24.8727 10.1977 25.4203 10.6016 25.9673C11.0062 26.5156 10.8039 27.1494 10.8543 28.0782C10.9046 29.0082 10.1466 29.4311 9.74193 30.0643C9.33731 30.6974 9.59001 31.6654 7.99633 32.239C6.82975 32.655 2.65177 34.2954 0.5 35.1432C6.06779 41.9055 15.5229 46.3557 26.2515 46.3557C30.6 46.3557 34.7377 45.6219 38.494 44.3019C37.646 38.9279 36.967 36.5905 34.7532 35.656C32.4038 34.6664 27.546 32.8069 25.9531 32.2397C24.3587 31.6705 24.6113 30.6967 24.2067 30.0636C23.8021 29.4305 23.044 29.0076 23.0936 28.0788C23.1448 27.15 22.9425 26.5163 23.3463 25.968C23.7099 25.4773 24.2726 24.9828 24.4951 24.4295C26.8445 25.8451 29.6838 26.786 32.7937 27.0569V31.7857C32.7937 32.2118 33.1208 32.5917 33.6153 32.7386C33.7541 32.7784 33.8928 32.7987 34.0378 32.7987C34.399 32.7987 34.7501 32.6695 34.9904 32.4353L41.5953 25.9597C47.6205 23.7932 51.5 19.0277 51.5 13.7494C51.5023 6.36466 43.9533 0.355713 34.6741 0.355713ZM40.3528 24.1914C40.1699 24.2547 40.0079 24.3522 39.88 24.477L35.2764 28.988V26.118C35.2764 25.5742 34.7509 25.1278 34.085 25.105C30.5163 24.9879 27.308 23.8578 24.8865 22.0743C25.1493 22.0236 26.0802 21.7565 26.0802 20.5244C26.0802 19.0891 26.0802 18.3724 26.0802 17.9077C26.0802 17.443 25.4229 17.4436 25.2206 17.9495C25.2206 16.5566 25.2206 14.53 25.2206 13.5594C25.2206 12.5889 24.3618 10.4363 21.4783 9.29664L21.4759 9.29601C23.6672 5.23454 28.7591 2.38107 34.6757 2.38107C42.5867 2.38107 49.0234 7.48148 49.0234 13.75C49.0219 18.292 45.6183 22.3896 40.3528 24.1914Z" fill="black"/>
</svg>
